<?xml version="1.0" standalone="no"?>
<!DOCTYPE svg PUBLIC "-//W3C//DTD SVG 20010904//EN"
 "http://www.w3.org/TR/2001/REC-SVG-20010904/DTD/svg10.dtd">
<svg version="1.0" xmlns="http://www.w3.org/2000/svg"
 width="700.000000pt" height="700.000000pt" viewBox="0 0 700.000000 700.000000"
 preserveAspectRatio="xMidYMid meet">
<metadata>
Created by potrace 1.14, written by Peter Selinger 2001-2017
</metadata>
<g transform="translate(0.000000,700.000000) scale(0.100000,-0.100000)"
fill="#000000" stroke="none">
<path d="M3317 6564 c-1 -1 -38 -5 -82 -8 -106 -9 -195 -23 -270 -42 -435
-111 -808 -378 -1048 -750 -82 -127 -166 -312 -202 -446 -15 -56 -22 -68 -39
-69 -75 -1 -184 -16 -331 -44 -44 -8 -228 -66 -240 -75 -5 -4 -21 -11 -35 -15
-14 -4 -63 -26 -110 -50 -401 -199 -720 -563 -863 -985 -38 -110 -70 -244 -84
-345 -14 -104 -8 -401 11 -500 9 -49 19 -103 21 -120 3 -16 24 -83 45 -148
190 -565 651 -991 1231 -1136 114 -29 123 -30 199 -37 35 -3 65 -6 66 -7 1 -1
-14 -35 -33 -76 -19 -41 -46 -115 -59 -165 -20 -78 -23 -110 -20 -226 4 -147
20 -218 75 -336 134 -286 440 -500 771 -539 61 -7 247 -8 258 -1 4 2 29 7 56
10 27 4 53 9 56 11 4 2 20 7 37 9 65 12 275 111 315 149 7 6 29 24 49 39 86
64 187 187 241 293 25 49 80 193 78 203 -1 1 2 17 5 35 11 61 14 122 14 355
l1 232 73 0 73 0 -2 -88 c-11 -385 247 -735 643 -870 119 -41 207 -55 343 -54
390 1 741 219 895 555 55 120 74 217 76 375 1 56 4 102 8 103 124 15 359 91
503 164 455 229 793 654 909 1143 11 46 22 100 25 120 3 20 9 66 13 102 17
125 5 389 -23 525 -17 82 -61 234 -83 285 -45 108 -104 223 -145 287 -27 41
-48 78 -48 82 0 5 -4 11 -8 13 -4 2 -29 31 -55 65 -102 134 -283 297 -442 397
-153 98 -378 189 -556 225 -158 32 -178 34 -374 35 l-190 1 -7 25 c-119 397
-311 688 -613 925 -208 163 -462 281 -710 331 -80 16 -141 25 -210 30 -78 6
-205 11 -208 8z m1793 -2349 c34 -17 73 -67 87 -110 6 -19 9 -490 8 -1275 -1
-991 -4 -1254 -14 -1290 -45 -153 -164 -294 -311 -367 -107 -54 -181 -73 -297
-78 -110 -5 -186 6 -278 41 -11 4 -22 8 -25 9 -45 11 -170 95 -222 148 -137
142 -190 332 -143 510 49 187 204 342 410 413 74 25 108 29 243 29 l122 0 0
673 c0 369 -2 672 -4 672 -2 0 -64 -15 -137 -34 -147 -38 -476 -122 -869 -222
-450 -115 -562 -144 -570 -149 -4 -2 -7 -427 -7 -943 0 -932 -4 -1059 -34
-1078 -5 -3 -9 -12 -9 -20 0 -22 -81 -142 -126 -188 -83 -84 -241 -164 -361
-183 -79 -12 -234 -6 -300 11 -242 64 -423 239 -469 456 -16 76 -7 236 15 265
5 5 11 21 14 35 4 14 24 53 45 85 106 164 269 263 477 292 57 7 86 8 170 2
l60 -4 1 810 0 810 22 42 c36 70 104 101 306 142 36 8 391 96 1509 376 142 36
271 67 286 70 15 3 46 11 69 19 23 8 42 14 42 12 0 -2 39 7 88 20 93 25 153
24 202 -1z"/>
</g>
</svg>
